<?xml version="1.0" encoding="UTF-8"?>
<svg xmlns="http://www.w3.org/2000/svg" width="256" height="256" viewBox="0 0 256 256">
  <title>Notepad++ Qt</title>
  <defs>
    <linearGradient id="page" x1="0" y1="0" x2="0" y2="1">
      <stop offset="0" stop-color="#ffffff"/>
      <stop offset="1" stop-color="#e6e6e6"/>
    </linearGradient>
  </defs>
  <rect x="0" y="0" width="256" height="256" rx="36" ry="36" fill="#2d3138"/>
  <g transform="translate(48,32)">
    <path d="M0,8 Q0,0 8,0 H120 L160,40 V184 Q160,192 152,192 H8 Q0,192 0,184 Z"
          fill="url(#page)" stroke="#1f2227" stroke-width="3"/>
    <path d="M120,0 L120,32 Q120,40 128,40 L160,40 Z"
          fill="#c9c9c9" stroke="#1f2227" stroke-width="3"/>
    <line x1="20" y1="72"  x2="120" y2="72"  stroke="#3a3f47" stroke-width="6" stroke-linecap="round"/>
    <line x1="20" y1="96"  x2="140" y2="96"  stroke="#3a3f47" stroke-width="6" stroke-linecap="round"/>
    <line x1="20" y1="120" x2="100" y2="120" stroke="#3a3f47" stroke-width="6" stroke-linecap="round"/>
    <line x1="20" y1="144" x2="130" y2="144" stroke="#3a3f47" stroke-width="6" stroke-linecap="round"/>
  </g>
  <g transform="translate(168,160)">
    <circle cx="36" cy="36" r="40" fill="#9ED12A" stroke="#1f2227" stroke-width="4"/>
    <text x="36" y="52" font-family="sans-serif" font-size="48" font-weight="bold"
          text-anchor="middle" fill="#1f2227">++</text>
  </g>
</svg>
